# xmcd
#
# Track frame offsets:
#	150
#	16355
#	30420
#	50220
#	64305
#	79162
#	94382
#	112000
#
# Disc length: 1685 seconds
#
# Revision: 1
# Processed by: cddbd v1.5.2PL0 Copyright (c) Steve Scherf et al.
# Submitted via: audiograbber 1.83.01
#
DISCID=6b069308
DTITLE=Walserij West - Slide
DYEAR=2002
DGENRE=Pop
TTITLE0=Walserij West - I hear you knocking
TTITLE1=Walserij West - Premonition
TTITLE2=Walserij West - If you wanna be bad
TTITLE3=Walserij West - Willin
TTITLE4=Walserij West - Hey Joe
TTITLE5=Walserij West - Aan het Noordzeekanaal
TTITLE6=Walserij West - Going down geneva
TTITLE7=Walserij West - Whiskey rock and roller
EXTD=
EXTT0=
EXTT1=
EXTT2=
EXTT3=
EXTT4=
EXTT5=
EXTT6=
EXTT7=
PLAYORDER=
